M48
; DRILL file KiCad 10.0.5 date 2026-08-21T15:00:05
; FORMAT={-:-/ absolute / metric / decimal}
; #@! TF.CreationDate,2026-08-21T15:00:05+05:30
; #@! TF.GenerationSoftware,Kicad,Pcbnew,10.0.5
; #@! TF.FileFunction,Plated,1,2,PTH
FMAT,2
METRIC
; #@! TA.AperFunction,Plated,PTH,ComponentDrill
T1C1.000
; #@! TA.AperFunction,Plated,PTH,ComponentDrill
T2C1.500
%
G90
G05
T1
X141.153Y-80.38
X141.153Y-82.92
X141.153Y-85.46
X141.153Y-88.0
X141.153Y-90.54
X141.153Y-93.08
X141.153Y-95.62
X142.25Y-110.5
X142.25Y-113.0
X142.25Y-115.5
X156.403Y-80.38
X156.403Y-82.92
X156.403Y-85.46
X156.403Y-88.0
X156.403Y-90.54
X156.403Y-93.08
X156.403Y-95.62
X156.75Y-110.5
X156.75Y-115.5
T2
X118.403Y-78.293
X118.403Y-93.383
X118.403Y-108.473
X124.753Y-75.753
X124.753Y-90.843
X124.753Y-105.933
T2
G00X149.1Y-107.4
M15
G01X150.4Y-107.4
M16
G05
G00X149.1Y-118.6
M15
G01X150.4Y-118.6
M16
G05
M30
