%TF.GenerationSoftware,KiCad,Pcbnew,10.0.5*%
%TF.CreationDate,2026-08-21T15:00:22+05:30*%
%TF.ProjectId,Macropad-hackclub,4d616372-6f70-4616-942d-6861636b636c,rev?*%
%TF.SameCoordinates,Original*%
%TF.FileFunction,Legend,Bot*%
%TF.FilePolarity,Positive*%
%FSLAX46Y46*%
G04 Gerber Fmt 4.6, Leading zero omitted, Abs format (unit mm)*
G04 Created by KiCad (PCBNEW 10.0.5) date 2026-08-21 15:00:22*
%MOMM*%
%LPD*%
G01*
G04 APERTURE LIST*
%ADD10C,0.101600*%
%ADD11C,0.150000*%
%ADD12C,0.025400*%
%ADD13C,0.254000*%
%ADD14C,0.120000*%
%ADD15C,0.127000*%
G04 APERTURE END LIST*
D10*
X149455818Y-87516985D02*
X149455818Y-88236652D01*
X149455818Y-88236652D02*
X149413485Y-88321318D01*
X149413485Y-88321318D02*
X149371151Y-88363652D01*
X149371151Y-88363652D02*
X149286485Y-88405985D01*
X149286485Y-88405985D02*
X149117151Y-88405985D01*
X149117151Y-88405985D02*
X149032485Y-88363652D01*
X149032485Y-88363652D02*
X148990151Y-88321318D01*
X148990151Y-88321318D02*
X148947818Y-88236652D01*
X148947818Y-88236652D02*
X148947818Y-87516985D01*
X148058818Y-88405985D02*
X148566818Y-88405985D01*
X148312818Y-88405985D02*
X148312818Y-87516985D01*
X148312818Y-87516985D02*
X148397485Y-87643985D01*
X148397485Y-87643985D02*
X148482152Y-87728652D01*
X148482152Y-87728652D02*
X148566818Y-87770985D01*
D11*
X150302293Y-87954819D02*
X149635627Y-88954819D01*
X149635627Y-87954819D02*
X150302293Y-88954819D01*
X149254674Y-88954819D02*
X149254674Y-87954819D01*
X148826103Y-88669104D02*
X148349913Y-88669104D01*
X148921341Y-88954819D02*
X148588008Y-87954819D01*
X148588008Y-87954819D02*
X148254675Y-88954819D01*
X147730865Y-87954819D02*
X147540389Y-87954819D01*
X147540389Y-87954819D02*
X147445151Y-88002438D01*
X147445151Y-88002438D02*
X147349913Y-88097676D01*
X147349913Y-88097676D02*
X147302294Y-88288152D01*
X147302294Y-88288152D02*
X147302294Y-88621485D01*
X147302294Y-88621485D02*
X147349913Y-88811961D01*
X147349913Y-88811961D02*
X147445151Y-88907200D01*
X147445151Y-88907200D02*
X147540389Y-88954819D01*
X147540389Y-88954819D02*
X147730865Y-88954819D01*
X147730865Y-88954819D02*
X147826103Y-88907200D01*
X147826103Y-88907200D02*
X147921341Y-88811961D01*
X147921341Y-88811961D02*
X147968960Y-88621485D01*
X147968960Y-88621485D02*
X147968960Y-88288152D01*
X147968960Y-88288152D02*
X147921341Y-88097676D01*
X147921341Y-88097676D02*
X147826103Y-88002438D01*
X147826103Y-88002438D02*
X147730865Y-87954819D01*
X153540389Y-86907200D02*
X153397532Y-86954819D01*
X153397532Y-86954819D02*
X153159437Y-86954819D01*
X153159437Y-86954819D02*
X153064199Y-86907200D01*
X153064199Y-86907200D02*
X153016580Y-86859580D01*
X153016580Y-86859580D02*
X152968961Y-86764342D01*
X152968961Y-86764342D02*
X152968961Y-86669104D01*
X152968961Y-86669104D02*
X153016580Y-86573866D01*
X153016580Y-86573866D02*
X153064199Y-86526247D01*
X153064199Y-86526247D02*
X153159437Y-86478628D01*
X153159437Y-86478628D02*
X153349913Y-86431009D01*
X153349913Y-86431009D02*
X153445151Y-86383390D01*
X153445151Y-86383390D02*
X153492770Y-86335771D01*
X153492770Y-86335771D02*
X153540389Y-86240533D01*
X153540389Y-86240533D02*
X153540389Y-86145295D01*
X153540389Y-86145295D02*
X153492770Y-86050057D01*
X153492770Y-86050057D02*
X153445151Y-86002438D01*
X153445151Y-86002438D02*
X153349913Y-85954819D01*
X153349913Y-85954819D02*
X153111818Y-85954819D01*
X153111818Y-85954819D02*
X152968961Y-86002438D01*
X152159437Y-86907200D02*
X152254675Y-86954819D01*
X152254675Y-86954819D02*
X152445151Y-86954819D01*
X152445151Y-86954819D02*
X152540389Y-86907200D01*
X152540389Y-86907200D02*
X152588008Y-86811961D01*
X152588008Y-86811961D02*
X152588008Y-86431009D01*
X152588008Y-86431009D02*
X152540389Y-86335771D01*
X152540389Y-86335771D02*
X152445151Y-86288152D01*
X152445151Y-86288152D02*
X152254675Y-86288152D01*
X152254675Y-86288152D02*
X152159437Y-86335771D01*
X152159437Y-86335771D02*
X152111818Y-86431009D01*
X152111818Y-86431009D02*
X152111818Y-86526247D01*
X152111818Y-86526247D02*
X152588008Y-86621485D01*
X151302294Y-86907200D02*
X151397532Y-86954819D01*
X151397532Y-86954819D02*
X151588008Y-86954819D01*
X151588008Y-86954819D02*
X151683246Y-86907200D01*
X151683246Y-86907200D02*
X151730865Y-86811961D01*
X151730865Y-86811961D02*
X151730865Y-86431009D01*
X151730865Y-86431009D02*
X151683246Y-86335771D01*
X151683246Y-86335771D02*
X151588008Y-86288152D01*
X151588008Y-86288152D02*
X151397532Y-86288152D01*
X151397532Y-86288152D02*
X151302294Y-86335771D01*
X151302294Y-86335771D02*
X151254675Y-86431009D01*
X151254675Y-86431009D02*
X151254675Y-86526247D01*
X151254675Y-86526247D02*
X151730865Y-86621485D01*
X150445151Y-86907200D02*
X150540389Y-86954819D01*
X150540389Y-86954819D02*
X150730865Y-86954819D01*
X150730865Y-86954819D02*
X150826103Y-86907200D01*
X150826103Y-86907200D02*
X150873722Y-86811961D01*
X150873722Y-86811961D02*
X150873722Y-86431009D01*
X150873722Y-86431009D02*
X150826103Y-86335771D01*
X150826103Y-86335771D02*
X150730865Y-86288152D01*
X150730865Y-86288152D02*
X150540389Y-86288152D01*
X150540389Y-86288152D02*
X150445151Y-86335771D01*
X150445151Y-86335771D02*
X150397532Y-86431009D01*
X150397532Y-86431009D02*
X150397532Y-86526247D01*
X150397532Y-86526247D02*
X150873722Y-86621485D01*
X149540389Y-86954819D02*
X149540389Y-85954819D01*
X149540389Y-86907200D02*
X149635627Y-86954819D01*
X149635627Y-86954819D02*
X149826103Y-86954819D01*
X149826103Y-86954819D02*
X149921341Y-86907200D01*
X149921341Y-86907200D02*
X149968960Y-86859580D01*
X149968960Y-86859580D02*
X150016579Y-86764342D01*
X150016579Y-86764342D02*
X150016579Y-86478628D01*
X150016579Y-86478628D02*
X149968960Y-86383390D01*
X149968960Y-86383390D02*
X149921341Y-86335771D01*
X149921341Y-86335771D02*
X149826103Y-86288152D01*
X149826103Y-86288152D02*
X149635627Y-86288152D01*
X149635627Y-86288152D02*
X149540389Y-86335771D01*
X148349912Y-86907200D02*
X148207055Y-86954819D01*
X148207055Y-86954819D02*
X147968960Y-86954819D01*
X147968960Y-86954819D02*
X147873722Y-86907200D01*
X147873722Y-86907200D02*
X147826103Y-86859580D01*
X147826103Y-86859580D02*
X147778484Y-86764342D01*
X147778484Y-86764342D02*
X147778484Y-86669104D01*
X147778484Y-86669104D02*
X147826103Y-86573866D01*
X147826103Y-86573866D02*
X147873722Y-86526247D01*
X147873722Y-86526247D02*
X147968960Y-86478628D01*
X147968960Y-86478628D02*
X148159436Y-86431009D01*
X148159436Y-86431009D02*
X148254674Y-86383390D01*
X148254674Y-86383390D02*
X148302293Y-86335771D01*
X148302293Y-86335771D02*
X148349912Y-86240533D01*
X148349912Y-86240533D02*
X148349912Y-86145295D01*
X148349912Y-86145295D02*
X148302293Y-86050057D01*
X148302293Y-86050057D02*
X148254674Y-86002438D01*
X148254674Y-86002438D02*
X148159436Y-85954819D01*
X148159436Y-85954819D02*
X147921341Y-85954819D01*
X147921341Y-85954819D02*
X147778484Y-86002438D01*
X147492769Y-86288152D02*
X147111817Y-86288152D01*
X147349912Y-85954819D02*
X147349912Y-86811961D01*
X147349912Y-86811961D02*
X147302293Y-86907200D01*
X147302293Y-86907200D02*
X147207055Y-86954819D01*
X147207055Y-86954819D02*
X147111817Y-86954819D01*
X146349912Y-86288152D02*
X146349912Y-86954819D01*
X146778483Y-86288152D02*
X146778483Y-86811961D01*
X146778483Y-86811961D02*
X146730864Y-86907200D01*
X146730864Y-86907200D02*
X146635626Y-86954819D01*
X146635626Y-86954819D02*
X146492769Y-86954819D01*
X146492769Y-86954819D02*
X146397531Y-86907200D01*
X146397531Y-86907200D02*
X146349912Y-86859580D01*
X145445150Y-86954819D02*
X145445150Y-85954819D01*
X145445150Y-86907200D02*
X145540388Y-86954819D01*
X145540388Y-86954819D02*
X145730864Y-86954819D01*
X145730864Y-86954819D02*
X145826102Y-86907200D01*
X145826102Y-86907200D02*
X145873721Y-86859580D01*
X145873721Y-86859580D02*
X145921340Y-86764342D01*
X145921340Y-86764342D02*
X145921340Y-86478628D01*
X145921340Y-86478628D02*
X145873721Y-86383390D01*
X145873721Y-86383390D02*
X145826102Y-86335771D01*
X145826102Y-86335771D02*
X145730864Y-86288152D01*
X145730864Y-86288152D02*
X145540388Y-86288152D01*
X145540388Y-86288152D02*
X145445150Y-86335771D01*
X144968959Y-86954819D02*
X144968959Y-86288152D01*
X144968959Y-85954819D02*
X145016578Y-86002438D01*
X145016578Y-86002438D02*
X144968959Y-86050057D01*
X144968959Y-86050057D02*
X144921340Y-86002438D01*
X144921340Y-86002438D02*
X144968959Y-85954819D01*
X144968959Y-85954819D02*
X144968959Y-86050057D01*
X144349912Y-86954819D02*
X144445150Y-86907200D01*
X144445150Y-86907200D02*
X144492769Y-86859580D01*
X144492769Y-86859580D02*
X144540388Y-86764342D01*
X144540388Y-86764342D02*
X144540388Y-86478628D01*
X144540388Y-86478628D02*
X144492769Y-86383390D01*
X144492769Y-86383390D02*
X144445150Y-86335771D01*
X144445150Y-86335771D02*
X144349912Y-86288152D01*
X144349912Y-86288152D02*
X144207055Y-86288152D01*
X144207055Y-86288152D02*
X144111817Y-86335771D01*
X144111817Y-86335771D02*
X144064198Y-86383390D01*
X144064198Y-86383390D02*
X144016579Y-86478628D01*
X144016579Y-86478628D02*
X144016579Y-86764342D01*
X144016579Y-86764342D02*
X144064198Y-86859580D01*
X144064198Y-86859580D02*
X144111817Y-86907200D01*
X144111817Y-86907200D02*
X144207055Y-86954819D01*
X144207055Y-86954819D02*
X144349912Y-86954819D01*
D12*
%TO.C,U1*%
X139888993Y-96521574D02*
X139890772Y-96570850D01*
X139893820Y-96619618D01*
X139897884Y-96668639D01*
X139903217Y-96717407D01*
X139909821Y-96766175D01*
X139917441Y-96814690D01*
X139926332Y-96862950D01*
X139936237Y-96910955D01*
X139888993Y-96521574D01*
X157666200Y-79438295D02*
X157663152Y-79389527D01*
X157659088Y-79340506D01*
X157666200Y-79438295D01*
D13*
X159905485Y-79200000D02*
G75*
G02*
X159651485Y-79200000I-127000J0D01*
G01*
X159651485Y-79200000D02*
G75*
G02*
X159905485Y-79200000I127000J0D01*
G01*
D14*
X157678485Y-96500000D02*
G75*
G02*
X155678485Y-98500000I-2044857J44857D01*
G01*
X155678485Y-77500000D02*
G75*
G02*
X157678485Y-79500000I-44612J-2044612D01*
G01*
X141878485Y-98500000D02*
G75*
G02*
X139878485Y-96500000I0J2000000D01*
G01*
X139878485Y-79500000D02*
G75*
G02*
X141878485Y-77500000I2044610J-44610D01*
G01*
D15*
X157678485Y-79500000D02*
X157678485Y-96500000D01*
X155678485Y-98500000D02*
X141878485Y-98500000D01*
X153278485Y-83429270D02*
X153278485Y-76075970D01*
X153278485Y-76075970D02*
X144278485Y-76075970D01*
X144278485Y-83429270D02*
X153278485Y-83429270D01*
X144278485Y-76075970D02*
X144278485Y-83429270D01*
X141878485Y-77500910D02*
X155678485Y-77500910D01*
X139878485Y-96500000D02*
X139878485Y-79500000D01*
%TD*%
M02*
