%TF.GenerationSoftware,KiCad,Pcbnew,10.0.5*%
%TF.CreationDate,2026-08-21T15:00:22+05:30*%
%TF.ProjectId,Macropad-hackclub,4d616372-6f70-4616-942d-6861636b636c,rev?*%
%TF.SameCoordinates,Original*%
%TF.FileFunction,Soldermask,Top*%
%TF.FilePolarity,Negative*%
%FSLAX46Y46*%
G04 Gerber Fmt 4.6, Leading zero omitted, Abs format (unit mm)*
G04 Created by KiCad (PCBNEW 10.0.5) date 2026-08-21 15:00:22*
%MOMM*%
%LPD*%
G01*
G04 APERTURE LIST*
%ADD10C,2.000000*%
%ADD11R,3.200000X2.000000*%
%ADD12R,2.000000X2.000000*%
%ADD13R,2.510000X1.000000*%
%ADD14R,1.600000X0.850000*%
%ADD15C,2.200000*%
%ADD16C,1.700000*%
%ADD17C,4.000000*%
%ADD18O,3.700000X1.700000*%
%ADD19O,3.600000X1.700000*%
%ADD20R,3.500000X1.700000*%
G04 APERTURE END LIST*
D10*
%TO.C,SW6*%
X156750000Y-115500000D03*
X156750000Y-110500000D03*
D11*
X149750000Y-118600000D03*
X149750000Y-107400000D03*
D10*
X142250000Y-115500000D03*
X142250000Y-113000000D03*
D12*
X142250000Y-110500000D03*
%TD*%
D13*
%TO.C,J1*%
X165345000Y-97690000D03*
X168655000Y-100230000D03*
X165345000Y-102770000D03*
X168655000Y-105310000D03*
%TD*%
D14*
%TO.C,D1*%
X163750000Y-113625000D03*
X163750000Y-115375000D03*
X167250000Y-115375000D03*
X167250000Y-113625000D03*
%TD*%
D15*
%TO.C,SW1*%
X118402985Y-78292985D03*
X124752985Y-75752985D03*
D16*
X127292985Y-80832985D03*
D17*
X122212985Y-80832985D03*
D16*
X117132985Y-80832985D03*
%TD*%
D15*
%TO.C,SW2*%
X118402985Y-93382985D03*
X124752985Y-90842985D03*
D16*
X127292985Y-95922985D03*
D17*
X122212985Y-95922985D03*
D16*
X117132985Y-95922985D03*
%TD*%
D15*
%TO.C,SW3*%
X118402985Y-108472985D03*
X124752985Y-105932985D03*
D16*
X127292985Y-111012985D03*
D17*
X122212985Y-111012985D03*
D16*
X117132985Y-111012985D03*
%TD*%
D18*
%TO.C,U1*%
X140153485Y-80380000D03*
X140153485Y-82920000D03*
X140153485Y-85460000D03*
X140153485Y-88000000D03*
D19*
X140153485Y-90540000D03*
X140153485Y-93080000D03*
X140153485Y-95620000D03*
X157403485Y-95620000D03*
X157403485Y-93080000D03*
X157403485Y-90540000D03*
X157403485Y-88000000D03*
X157403485Y-85460000D03*
X157403485Y-82920000D03*
D20*
X157403485Y-80380000D03*
%TD*%
M02*
