%TF.GenerationSoftware,KiCad,Pcbnew,10.0.5*%
%TF.CreationDate,2026-08-21T15:00:22+05:30*%
%TF.ProjectId,Macropad-hackclub,4d616372-6f70-4616-942d-6861636b636c,rev?*%
%TF.SameCoordinates,Original*%
%TF.FileFunction,Copper,L2,Bot*%
%TF.FilePolarity,Positive*%
%FSLAX46Y46*%
G04 Gerber Fmt 4.6, Leading zero omitted, Abs format (unit mm)*
G04 Created by KiCad (PCBNEW 10.0.5) date 2026-08-21 15:00:22*
%MOMM*%
%LPD*%
G01*
G04 APERTURE LIST*
%TA.AperFunction,ComponentPad*%
%ADD10C,2.000000*%
%TD*%
%TA.AperFunction,ComponentPad*%
%ADD11R,3.200000X2.000000*%
%TD*%
%TA.AperFunction,ComponentPad*%
%ADD12R,2.000000X2.000000*%
%TD*%
%TA.AperFunction,ComponentPad*%
%ADD13C,2.200000*%
%TD*%
%TA.AperFunction,ComponentPad*%
%ADD14O,3.700000X1.700000*%
%TD*%
%TA.AperFunction,ComponentPad*%
%ADD15O,3.600000X1.700000*%
%TD*%
%TA.AperFunction,ComponentPad*%
%ADD16R,3.500000X1.700000*%
%TD*%
%TA.AperFunction,Conductor*%
%ADD17C,0.200000*%
%TD*%
G04 APERTURE END LIST*
D10*
%TO.P,SW6,S1,S1_S1*%
%TO.N,Net-(U1-PA11_A3_D3)*%
X156750000Y-115500000D03*
%TO.P,SW6,S2,S2_S2*%
%TO.N,Net-(D1-VSS)*%
X156750000Y-110500000D03*
D11*
%TO.P,SW6,MP*%
%TO.N,N/C*%
X149750000Y-118600000D03*
X149750000Y-107400000D03*
D10*
%TO.P,SW6,B,B_B*%
%TO.N,Net-(U1-PA9_A5_D5_SCL)*%
X142250000Y-115500000D03*
%TO.P,SW6,C,C_C*%
%TO.N,Net-(D1-VSS)*%
X142250000Y-113000000D03*
D12*
%TO.P,SW6,A,A_A*%
%TO.N,Net-(U1-PA8_A4_D4_SDA)*%
X142250000Y-110500000D03*
%TD*%
D13*
%TO.P,SW1,2,2_2*%
%TO.N,GND*%
X118402985Y-78292985D03*
%TO.P,SW1,1,1_1*%
%TO.N,Net-(U1-PA6_A10_D10_MOSI)*%
X124752985Y-75752985D03*
%TD*%
%TO.P,SW2,2,2_2*%
%TO.N,GND*%
X118402985Y-93382985D03*
%TO.P,SW2,1,1_1*%
%TO.N,Net-(U1-PA5_A9_D9_MISO)*%
X124752985Y-90842985D03*
%TD*%
%TO.P,SW3,2,2_2*%
%TO.N,GND*%
X118402985Y-108472985D03*
%TO.P,SW3,1,1_1*%
%TO.N,Net-(U1-PA7_A8_D8_SCK)*%
X124752985Y-105932985D03*
%TD*%
D14*
%TO.P,U1,14,5V_14*%
%TO.N,Net-(D1-VDD)*%
X140153485Y-80380000D03*
%TO.P,U1,13,GND_13*%
%TO.N,Net-(D1-VSS)*%
X140153485Y-82920000D03*
%TO.P,U1,12,3V3_12*%
%TO.N,unconnected-(U1-3V3-Pad12)*%
X140153485Y-85460000D03*
%TO.P,U1,11,PA6_A10_D10_MOSI_11*%
%TO.N,Net-(U1-PA6_A10_D10_MOSI)*%
X140153485Y-88000000D03*
D15*
%TO.P,U1,10,PA5_A9_D9_MISO_10*%
%TO.N,Net-(U1-PA5_A9_D9_MISO)*%
X140153485Y-90540000D03*
%TO.P,U1,9,PA7_A8_D8_SCK_9*%
%TO.N,Net-(U1-PA7_A8_D8_SCK)*%
X140153485Y-93080000D03*
%TO.P,U1,8,PB09_A7_D7_RX_8*%
%TO.N,Net-(J1-Pin_4)*%
X140153485Y-95620000D03*
%TO.P,U1,7,PB08_A6_D6_TX_7*%
%TO.N,Net-(J1-Pin_3)*%
X157403485Y-95620000D03*
%TO.P,U1,6,PA9_A5_D5_SCL_6*%
%TO.N,Net-(U1-PA9_A5_D5_SCL)*%
X157403485Y-93080000D03*
%TO.P,U1,5,PA8_A4_D4_SDA_5*%
%TO.N,Net-(U1-PA8_A4_D4_SDA)*%
X157403485Y-90540000D03*
%TO.P,U1,4,PA11_A3_D3_4*%
%TO.N,Net-(U1-PA11_A3_D3)*%
X157403485Y-88000000D03*
%TO.P,U1,3,PA10_A2_D2_3*%
%TO.N,Net-(D1-DIN)*%
X157403485Y-85460000D03*
%TO.P,U1,2,PA4_A1_D1_2*%
%TO.N,unconnected-(U1-PA4_A1_D1-Pad2)*%
X157403485Y-82920000D03*
D16*
%TO.P,U1,1,PA02_A0_D0_1*%
%TO.N,unconnected-(U1-PA02_A0_D0-Pad1)*%
X157403485Y-80380000D03*
%TD*%
%TO.N,Net-(D1-VSS)*%
D17*
X143550000Y-114300000D02*
X142250000Y-113000000D01*
X143550000Y-116038478D02*
X143550000Y-114300000D01*
X142788478Y-116800000D02*
X143550000Y-116038478D01*
X141711522Y-116800000D02*
X142788478Y-116800000D01*
X140550000Y-115638478D02*
X141711522Y-116800000D01*
X140550000Y-101711454D02*
X140550000Y-115638478D01*
X142500000Y-99761453D02*
X140550000Y-101711454D01*
X142500000Y-84266515D02*
X142500000Y-99761453D01*
X141153485Y-82920000D02*
X142500000Y-84266515D01*
X156750000Y-110500000D02*
X165500000Y-101750000D01*
%TO.N,Net-(U1-PA9_A5_D5_SCL)*%
X142000000Y-116000000D02*
X142250000Y-115750000D01*
X140950000Y-101877139D02*
X140950000Y-114950000D01*
X140950000Y-114950000D02*
X142000000Y-116000000D01*
X158829831Y-89390000D02*
X153437138Y-89390000D01*
X153437138Y-89390000D02*
X140950000Y-101877139D01*
X142250000Y-115750000D02*
X142250000Y-115500000D01*
X159503485Y-90063654D02*
X158829831Y-89390000D01*
X159503485Y-91016346D02*
X159503485Y-90063654D01*
X156403485Y-93080000D02*
X157439831Y-93080000D01*
X157439831Y-93080000D02*
X159503485Y-91016346D01*
%TO.N,Net-(U1-PA8_A4_D4_SDA)*%
X155443484Y-91500000D02*
X154971742Y-91971742D01*
X154971742Y-91971742D02*
X156403485Y-90540000D01*
X154903485Y-92000000D02*
X154943485Y-92000000D01*
X154943485Y-92000000D02*
X154971742Y-91971742D01*
X150403485Y-110500000D02*
X154903485Y-106000000D01*
X142250000Y-110500000D02*
X150403485Y-110500000D01*
X154903485Y-106000000D02*
X154903485Y-92000000D01*
%TO.N,Net-(U1-PA11_A3_D3)*%
X156500000Y-115750000D02*
X156750000Y-115500000D01*
X156500000Y-115750000D02*
X156500000Y-116000000D01*
%TO.N,Net-(U1-PA8_A4_D4_SDA)*%
X156403485Y-90540000D02*
X155971742Y-90971742D01*
X155971742Y-90971742D02*
X155703485Y-91240000D01*
%TO.N,Net-(D1-VSS)*%
X146050000Y-116800000D02*
X142250000Y-113000000D01*
X157288478Y-116800000D02*
X146050000Y-116800000D01*
X158050000Y-116038478D02*
X157288478Y-116800000D01*
X158050000Y-111800000D02*
X158050000Y-116038478D01*
X156750000Y-110500000D02*
X158050000Y-111800000D01*
%TO.N,Net-(J1-Pin_4)*%
X141153485Y-95620000D02*
X141153485Y-96153485D01*
%TO.N,Net-(U1-PA7_A8_D8_SCK)*%
X137605970Y-93080000D02*
X141153485Y-93080000D01*
%TO.N,GND*%
X118402985Y-78292985D02*
X118402985Y-93382985D01*
%TO.N,Net-(U1-PA5_A9_D9_MISO)*%
X140850500Y-90842985D02*
X141153485Y-90540000D01*
%TO.N,Net-(U1-PA7_A8_D8_SCK)*%
X124752985Y-105932985D02*
X137605970Y-93080000D01*
%TO.N,Net-(U1-PA5_A9_D9_MISO)*%
X124752985Y-90842985D02*
X140850500Y-90842985D01*
%TO.N,GND*%
X118402985Y-93382985D02*
X118402985Y-108472985D01*
%TO.N,Net-(U1-PA6_A10_D10_MOSI)*%
X137000000Y-88000000D02*
X141153485Y-88000000D01*
X124752985Y-75752985D02*
X137000000Y-88000000D01*
%TD*%
M02*
