%TF.GenerationSoftware,KiCad,Pcbnew,10.0.5*%
%TF.CreationDate,2026-08-21T15:00:22+05:30*%
%TF.ProjectId,Macropad-hackclub,4d616372-6f70-4616-942d-6861636b636c,rev?*%
%TF.SameCoordinates,Original*%
%TF.FileFunction,Copper,L1,Top*%
%TF.FilePolarity,Positive*%
%FSLAX46Y46*%
G04 Gerber Fmt 4.6, Leading zero omitted, Abs format (unit mm)*
G04 Created by KiCad (PCBNEW 10.0.5) date 2026-08-21 15:00:22*
%MOMM*%
%LPD*%
G01*
G04 APERTURE LIST*
%TA.AperFunction,ComponentPad*%
%ADD10C,2.000000*%
%TD*%
%TA.AperFunction,ComponentPad*%
%ADD11R,3.200000X2.000000*%
%TD*%
%TA.AperFunction,ComponentPad*%
%ADD12R,2.000000X2.000000*%
%TD*%
%TA.AperFunction,SMDPad,CuDef*%
%ADD13R,2.510000X1.000000*%
%TD*%
%TA.AperFunction,SMDPad,CuDef*%
%ADD14R,1.600000X0.850000*%
%TD*%
%TA.AperFunction,ComponentPad*%
%ADD15C,2.200000*%
%TD*%
%TA.AperFunction,ComponentPad*%
%ADD16O,3.700000X1.700000*%
%TD*%
%TA.AperFunction,ComponentPad*%
%ADD17O,3.600000X1.700000*%
%TD*%
%TA.AperFunction,ComponentPad*%
%ADD18R,3.500000X1.700000*%
%TD*%
%TA.AperFunction,Conductor*%
%ADD19C,0.200000*%
%TD*%
G04 APERTURE END LIST*
D10*
%TO.P,SW6,S1,S1_S1*%
%TO.N,Net-(U1-PA11_A3_D3)*%
X156750000Y-115500000D03*
%TO.P,SW6,S2,S2_S2*%
%TO.N,Net-(D1-VSS)*%
X156750000Y-110500000D03*
D11*
%TO.P,SW6,MP*%
%TO.N,N/C*%
X149750000Y-118600000D03*
X149750000Y-107400000D03*
D10*
%TO.P,SW6,B,B_B*%
%TO.N,Net-(U1-PA9_A5_D5_SCL)*%
X142250000Y-115500000D03*
%TO.P,SW6,C,C_C*%
%TO.N,Net-(D1-VSS)*%
X142250000Y-113000000D03*
D12*
%TO.P,SW6,A,A_A*%
%TO.N,Net-(U1-PA8_A4_D4_SDA)*%
X142250000Y-110500000D03*
%TD*%
D13*
%TO.P,J1,1,Pin_1_1*%
%TO.N,Net-(D1-VSS)*%
X165345000Y-97690000D03*
%TO.P,J1,2,Pin_2_2*%
%TO.N,Net-(D1-VDD)*%
X168655000Y-100230000D03*
%TO.P,J1,3,Pin_3_3*%
%TO.N,Net-(J1-Pin_3)*%
X165345000Y-102770000D03*
%TO.P,J1,4,Pin_4_4*%
%TO.N,Net-(J1-Pin_4)*%
X168655000Y-105310000D03*
%TD*%
D14*
%TO.P,D1,1,VDD_1*%
%TO.N,Net-(D1-VDD)*%
X163750000Y-113625000D03*
%TO.P,D1,2,DOUT_2*%
%TO.N,unconnected-(D1-DOUT-Pad2)*%
X163750000Y-115375000D03*
%TO.P,D1,3,VSS_3*%
%TO.N,Net-(D1-VSS)*%
X167250000Y-115375000D03*
%TO.P,D1,4,DIN_4*%
%TO.N,Net-(D1-DIN)*%
X167250000Y-113625000D03*
%TD*%
D15*
%TO.P,SW1,2,2_2*%
%TO.N,GND*%
X118402985Y-78292985D03*
%TO.P,SW1,1,1_1*%
%TO.N,Net-(U1-PA6_A10_D10_MOSI)*%
X124752985Y-75752985D03*
%TD*%
%TO.P,SW2,2,2_2*%
%TO.N,GND*%
X118402985Y-93382985D03*
%TO.P,SW2,1,1_1*%
%TO.N,Net-(U1-PA5_A9_D9_MISO)*%
X124752985Y-90842985D03*
%TD*%
%TO.P,SW3,2,2_2*%
%TO.N,GND*%
X118402985Y-108472985D03*
%TO.P,SW3,1,1_1*%
%TO.N,Net-(U1-PA7_A8_D8_SCK)*%
X124752985Y-105932985D03*
%TD*%
D16*
%TO.P,U1,14,5V_14*%
%TO.N,Net-(D1-VDD)*%
X140153485Y-80380000D03*
%TO.P,U1,13,GND_13*%
%TO.N,Net-(D1-VSS)*%
X140153485Y-82920000D03*
%TO.P,U1,12,3V3_12*%
%TO.N,unconnected-(U1-3V3-Pad12)*%
X140153485Y-85460000D03*
%TO.P,U1,11,PA6_A10_D10_MOSI_11*%
%TO.N,Net-(U1-PA6_A10_D10_MOSI)*%
X140153485Y-88000000D03*
D17*
%TO.P,U1,10,PA5_A9_D9_MISO_10*%
%TO.N,Net-(U1-PA5_A9_D9_MISO)*%
X140153485Y-90540000D03*
%TO.P,U1,9,PA7_A8_D8_SCK_9*%
%TO.N,Net-(U1-PA7_A8_D8_SCK)*%
X140153485Y-93080000D03*
%TO.P,U1,8,PB09_A7_D7_RX_8*%
%TO.N,Net-(J1-Pin_4)*%
X140153485Y-95620000D03*
%TO.P,U1,7,PB08_A6_D6_TX_7*%
%TO.N,Net-(J1-Pin_3)*%
X157403485Y-95620000D03*
%TO.P,U1,6,PA9_A5_D5_SCL_6*%
%TO.N,Net-(U1-PA9_A5_D5_SCL)*%
X157403485Y-93080000D03*
%TO.P,U1,5,PA8_A4_D4_SDA_5*%
%TO.N,Net-(U1-PA8_A4_D4_SDA)*%
X157403485Y-90540000D03*
%TO.P,U1,4,PA11_A3_D3_4*%
%TO.N,Net-(U1-PA11_A3_D3)*%
X157403485Y-88000000D03*
%TO.P,U1,3,PA10_A2_D2_3*%
%TO.N,Net-(D1-DIN)*%
X157403485Y-85460000D03*
%TO.P,U1,2,PA4_A1_D1_2*%
%TO.N,unconnected-(U1-PA4_A1_D1-Pad2)*%
X157403485Y-82920000D03*
D18*
%TO.P,U1,1,PA02_A0_D0_1*%
%TO.N,unconnected-(U1-PA02_A0_D0-Pad1)*%
X157403485Y-80380000D03*
%TD*%
%TO.N,Net-(D1-VSS)*%
D19*
X140067139Y-82920000D02*
X141153485Y-82920000D01*
X138003485Y-80856346D02*
X140067139Y-82920000D01*
X138003485Y-79903654D02*
X138003485Y-80856346D01*
X138677139Y-79230000D02*
X138003485Y-79903654D01*
X141629831Y-79230000D02*
X138677139Y-79230000D01*
X154089831Y-91690000D02*
X141629831Y-79230000D01*
X159345000Y-91690000D02*
X154089831Y-91690000D01*
X165345000Y-97690000D02*
X159345000Y-91690000D01*
X139920000Y-82920000D02*
X141153485Y-82920000D01*
%TO.N,Net-(U1-PA11_A3_D3)*%
X155000000Y-86596515D02*
X156403485Y-88000000D01*
X155000000Y-85287139D02*
X155000000Y-86596515D01*
X155977139Y-84310000D02*
X155000000Y-85287139D01*
X158829831Y-84310000D02*
X155977139Y-84310000D01*
X171010000Y-96490169D02*
X158829831Y-84310000D01*
X171010000Y-111990000D02*
X171010000Y-96490169D01*
X168350000Y-114650000D02*
X171010000Y-111990000D01*
X164700000Y-116100000D02*
X166150000Y-114650000D01*
X166150000Y-114650000D02*
X168350000Y-114650000D01*
X157350000Y-116100000D02*
X164700000Y-116100000D01*
X156750000Y-115500000D02*
X157350000Y-116100000D01*
%TO.N,Net-(D1-DIN)*%
X158005517Y-85460000D02*
X156403485Y-85460000D01*
X170610000Y-98064483D02*
X158005517Y-85460000D01*
X170610000Y-110265000D02*
X170610000Y-98064483D01*
X167250000Y-113625000D02*
X170610000Y-110265000D01*
%TO.N,Net-(D1-VSS)*%
X165345000Y-97655000D02*
X165345000Y-97690000D01*
X165500000Y-97500000D02*
X165345000Y-97655000D01*
X155450000Y-111800000D02*
X156750000Y-110500000D01*
X155450000Y-116038478D02*
X155450000Y-111800000D01*
X156211522Y-116800000D02*
X155450000Y-116038478D01*
X165825000Y-116800000D02*
X156211522Y-116800000D01*
X167250000Y-115375000D02*
X165825000Y-116800000D01*
%TO.N,Net-(D1-VDD)*%
X167100000Y-101785000D02*
X167100000Y-110275000D01*
X168655000Y-100230000D02*
X167100000Y-101785000D01*
X159530000Y-94230000D02*
X155003485Y-94230000D01*
X155003485Y-94230000D02*
X141153485Y-80380000D01*
X165530000Y-100230000D02*
X159530000Y-94230000D01*
X168655000Y-100230000D02*
X165530000Y-100230000D01*
%TO.N,Net-(D1-VSS)*%
X167125000Y-115375000D02*
X167250000Y-115375000D01*
X167125000Y-115375000D02*
X167000000Y-115500000D01*
X156750000Y-110500000D02*
X156500000Y-110500000D01*
X165345000Y-97845000D02*
X165500000Y-98000000D01*
X165345000Y-97690000D02*
X165345000Y-97845000D01*
%TO.N,Net-(J1-Pin_3)*%
X163553486Y-102770000D02*
X165345000Y-102770000D01*
X156403485Y-95620000D02*
X163553486Y-102770000D01*
%TO.N,Net-(U1-PA11_A3_D3)*%
X156750000Y-115750000D02*
X157000000Y-116000000D01*
X156750000Y-115500000D02*
X156750000Y-115750000D01*
X156750000Y-115500000D02*
X156500000Y-115500000D01*
%TO.N,Net-(D1-VDD)*%
X159545000Y-94230000D02*
X155003485Y-94230000D01*
%TO.N,Net-(J1-Pin_4)*%
X143708478Y-95620000D02*
X141153485Y-95620000D01*
X164850000Y-114350000D02*
X162438478Y-114350000D01*
X168655000Y-110545000D02*
X164850000Y-114350000D01*
X162438478Y-114350000D02*
X143708478Y-95620000D01*
X168655000Y-105310000D02*
X168655000Y-110545000D01*
%TO.N,Net-(J1-Pin_3)*%
X165345000Y-102845000D02*
X165345000Y-102770000D01*
X165345000Y-102845000D02*
X165500000Y-103000000D01*
%TO.N,Net-(D1-VDD)*%
X167100000Y-110275000D02*
X163750000Y-113625000D01*
%TD*%
M02*
